<svg xmlns="http://www.w3.org/2000/svg" id="Component_105_2" width="240.633" height="216.555" data-name="Component 105 – 2" viewBox="0 0 240.633 216.555">
    <defs>
        <style>
            .cls-1{fill:#233747}.cls-2{fill:#e3e3e3}.cls-3{fill:#f7f7f7}.cls-4{fill:#8ebdfd}.cls-5{fill:url(#linear-gradient)}.cls-11,.cls-6{fill:#efefef}.cls-7{fill:url(#linear-gradient-2)}.cls-8{fill:url(#linear-gradient-3)}.cls-9{fill:#fff}.cls-10{fill:url(#linear-gradient-5)}.cls-11{opacity:.2}
        </style>
        <linearGradient id="linear-gradient" x1=".5" x2=".5" y2="1" gradientUnits="objectBoundingBox">
            <stop offset=".024" stop-color="#fff"/>
            <stop offset="1" stop-color="#efefef"/>
        </linearGradient>
        <linearGradient id="linear-gradient-2" x2="1" y1=".5" y2=".5" gradientUnits="objectBoundingBox">
            <stop offset="0" stop-color="#233747"/>
            <stop offset=".526" stop-color="#233775"/>
            <stop offset=".999" stop-color="#233747"/>
        </linearGradient>
        <linearGradient id="linear-gradient-3" x1=".5" x2=".5" y1="1" gradientUnits="objectBoundingBox">
            <stop offset="0" stop-color="#fff"/>
            <stop offset=".501" stop-color="#fafafa"/>
            <stop offset="1" stop-color="#efefef"/>
        </linearGradient>
        <linearGradient id="linear-gradient-5" x1=".5" x2=".5" y1="1" gradientUnits="objectBoundingBox">
            <stop offset="0" stop-color="#233747"/>
            <stop offset=".523" stop-color="#233775"/>
            <stop offset=".999" stop-color="#233747"/>
        </linearGradient>
    </defs>
    <g id="Group_406" data-name="Group 406" transform="translate(129.773 62.087)">
        <g id="Group_404" data-name="Group 404" transform="translate(0 50.192)">
            <g id="Group_403" data-name="Group 403">
                <path id="Path_1687" d="M121.126 291.788s38.591 13.88 66.964-19.112l-12.39-7.405s-18.413 23.146-44.765 13.519z" class="cls-1" data-name="Path 1687" transform="translate(-121.126 -265.271)"/>
            </g>
        </g>
        <path id="Path_1688" d="M192.493 272.443c2.633-2.957 6.539-10.613 3.484-15.717s-11.892-12.122-17.733-11.294a10.819 10.819 0 0 0-3.338 1.354c-8 4.492-22.937 18.717-21.027 24.731 3.028 7.538 14.776 15.952 17.049 17.52.246.176.383.264.383.264 3.37.899 18.548-13.901 21.182-16.858z" class="cls-2" data-name="Path 1688" transform="translate(-99.52 -228.278)"/>
        <path id="Path_1689" d="M170.929 288.47c5.806-3.832 15.062-12.932 17.063-15.179 2.634-2.957 6.539-10.613 3.486-15.717-2.859-4.776-10.778-11.224-16.57-11.355-8 4.492-22.937 18.717-21.027 24.731 3.027 7.538 14.775 15.95 17.048 17.52z" class="cls-3" data-name="Path 1689" transform="translate(-99.52 -227.711)"/>
        <path id="Path_1690" d="M172.347 278.617a1.3 1.3 0 0 1-.356-.04s-.136-.088-.382-.264c-2.2-1.517-13.261-9.438-16.723-16.775a5.4 5.4 0 0 0-.452.482 8.073 8.073 0 0 0-1.6 6.722 15.09 15.09 0 0 0 13.723 11.778 8.5 8.5 0 0 0 5.79-1.903z" class="cls-3" data-name="Path 1690" transform="translate(-100.2 -217.554)"/>
        <path id="Path_1691" d="M172.347 278.617a1.3 1.3 0 0 1-.356-.04s-.136-.088-.382-.264c-2.2-1.517-13.261-9.438-16.723-16.775a5.4 5.4 0 0 0-.452.482 8.073 8.073 0 0 0-1.6 6.722c.447-1.144 1.209-2.686 2.079-2.616 1.384.108 4.389 7.226 11.847 11.3 1.716 1.051.94 2.277-.2 3.092a8.5 8.5 0 0 0 5.787-1.901z" class="cls-2" data-name="Path 1691" transform="translate(-100.2 -217.554)"/>
        <path id="Path_1692" d="M180.577 254.9a21.745 21.745 0 0 1 2.455-5.091c.278-.471.547-.906.782-1.279.13-.213.251-.406.356-.574 1.222-1.957 4.736-5.42 4.414-6.772s-5.584-6.274-7.468-6.084c-1.2.115-3.479 2.2-6.093 5-.283.3-.565.614-.858.933-.351.382-.7.773-1.061 1.181-.9 1-1.814 2.059-2.721 3.107-2.929 3.386-5.588 8.674-7 11.754a43.122 43.122 0 0 1 5.117-3.475 10.82 10.82 0 0 1 3.338-1.354c.166-.023.331-.038.5-.052 2.479-.161 5.431.967 8.239 2.706z" class="cls-3" data-name="Path 1692" transform="translate(-93.11 -235.09)"/>
        <path id="Path_1693" d="M182.47 265.207c1.9-1.761 4.864-4.252 7.124-6.148.411-.353.8-.675 1.152-.973.6-.5 1.1-.92 1.447-1.229 2.4-2.1 4.332-3.931 3.684-5.363s-5.194-8.114-7.228-8.664c-.846-.228-3.428 1.4-6.147 3.378-.474.344-.955.7-1.429 1.059-.728.541-1.442 1.1-2.119 1.628a167.55 167.55 0 0 0-3.552 2.864 26.828 26.828 0 0 1 6.2 6.67 8.824 8.824 0 0 1 1.063 5.446c-.042.443-.112.887-.195 1.332z" class="cls-3" data-name="Path 1693" transform="translate(-85.141 -229.976)"/>
        <path id="Path_1694" d="M181.053 265.207c2.819-2.623 8-6.847 9.72-8.355 2.4-2.1 4.332-3.931 3.684-5.363s-5.194-8.114-7.228-8.664c-1.214-.328-6.037 3.193-9.694 6.065 2.288-1.046 5.666-2.416 6.737-1.884 1.681.827 5.633 6.137 5.476 7.851s-6.271 7.168-8.5 9.014c-.042.447-.111.891-.195 1.336z" class="cls-2" data-name="Path 1694" transform="translate(-83.724 -229.976)"/>
        <path id="Path_1695" d="M177.006 254.9c.521-2.11 2.646-5.41 3.592-6.943 1.222-1.957 4.736-5.42 4.414-6.772s-5.586-6.271-7.467-6.087c-1.2.115-3.479 2.2-6.093 5 2.273-1.673 4.952-3.406 5.782-2.93 1.52.875 4.482 3.62 4.663 4.663s-1.444 3.358-3.181 5.676a47.091 47.091 0 0 1-3.6 4.221s-3.983-.65-6.344.467c2.473-.162 5.428.966 8.234 2.705z" class="cls-2" data-name="Path 1695" transform="translate(-89.538 -235.09)"/>
        <path id="Path_1696" d="M177.916 244.814l1.239 2.624c.278-.471.547-.906.782-1.279l-1.019-2.152-6.634-5.215-2-.131c-.351.382-.7.773-1.061 1.181l2.589.173z" class="cls-4" data-name="Path 1696" transform="translate(-89.234 -232.722)"/>
        <path id="Path_1697" d="M187.079 255.286l.254 2.418c.411-.353.8-.675 1.152-.973v-.005l-.195-1.924-7.622-9.888-.427-.066c-.474.344-.955.7-1.429 1.059l1.166.168z" class="cls-4" data-name="Path 1697" transform="translate(-82.88 -228.621)"/>
        <g id="Group_405" data-name="Group 405" transform="translate(87.186 38.029)">
            <path id="Path_1698" d="M195.529 263.372c-.679-1.182-2.353-2.2-5.135-2.357a4.257 4.257 0 0 0-.321-.017 5.091 5.091 0 0 1-.941-.131 23.024 23.024 0 0 1-6.235-2.91 20.889 20.889 0 0 1-.966 2.2 19.144 19.144 0 0 1-2.591 3.935c-.865.973-3.082 3.221-5.787 5.764a37.183 37.183 0 0 0 7.831 2.209 14.3 14.3 0 0 0 2.247.155c.195 0 .389-.015.577-.028a5.781 5.781 0 0 0 2.021-.5c4.291-2.107 9.998-7.103 9.3-8.32z" class="cls-3" data-name="Path 1698" transform="translate(-173.552 -257.957)"/>
            <path id="Path_1699" d="M192.189 263.372c-.7-1.226-2.478-2.28-5.456-2.373-2.142-.07-5.473-1.976-7.176-3.042a20.892 20.892 0 0 1-.966 2.2 13.587 13.587 0 0 0 4.3 2.087c2 .535 5.174 1.477 5.446 2.583s-1.334 2.391-3.464 4.337a36.829 36.829 0 0 1-4 3.027 5.781 5.781 0 0 0 2.021-.5c4.286-2.106 9.993-7.102 9.295-8.319z" class="cls-2" data-name="Path 1699" transform="translate(-170.212 -257.957)"/>
            <path id="Path_1700" d="M180.508 271.061l2.227-1.279c.2-.115.293-.168 4.55-8.144l.083-.155-.1-1.628a4.257 4.257 0 0 0-.321-.017 5.093 5.093 0 0 1-.941-.131l.09 1.5c-1.439 2.689-3.675 6.84-4.113 7.56l-3.725 2.139a14.3 14.3 0 0 0 2.25.155z" class="cls-4" data-name="Path 1700" transform="translate(-170.43 -256.797)"/>
        </g>
    </g>
    <g id="Group_408" data-name="Group 408" transform="translate(22.126 123.319)">
        <g id="Group_407" data-name="Group 407">
            <path id="Path_1701" d="M93.175 271.909s-37.907 15.649-36.753 59.147l14.154-2.844s-1.914-29.512 24.073-40.09z" class="cls-1" data-name="Path 1701" transform="translate(-56.396 -271.909)"/>
        </g>
    </g>
    <path id="Path_1702" d="M80 325.018c-1.221 3.767-5.856 11.006-11.8 10.949s-16.469-4.138-18.706-9.6a10.812 10.812 0 0 1-.519-3.564c-.165-9.172 4.563-29.251 10.718-30.643 8.036-1.194 21.232 4.693 23.735 5.862.276.123.421.2.421.2 2.473 2.453-2.633 23.029-3.849 26.796z" class="cls-2" data-name="Path 1702" transform="translate(-39.199 -135.266)"/>
    <path id="Path_1703" d="M83.42 298.026c-.374 6.947-3.551 19.532-4.477 22.394-1.221 3.767-5.856 11-11.8 10.948-5.566-.053-15.132-3.629-18.172-8.561-.165-9.172 4.563-29.251 10.718-30.643 8.032-1.195 21.228 4.692 23.731 5.862z" class="cls-3" data-name="Path 1703" transform="translate(-39.199 -135.266)"/>
    <path id="Path_1704" d="M79.458 300.947a1.366 1.366 0 0 0-.215-.286s-.145-.073-.421-.2c-2.421-1.133-14.844-6.675-22.927-5.957a5.755 5.755 0 0 1 .188-.634 8.072 8.072 0 0 1 4.994-4.775 15.095 15.095 0 0 1 17.1 5.892 8.5 8.5 0 0 1 1.281 5.96z" class="cls-3" data-name="Path 1704" transform="translate(-34.602 -137.705)"/>
    <path id="Path_1705" d="M79.458 300.638a1.364 1.364 0 0 0-.215-.286s-.145-.073-.421-.2c-2.422-1.128-14.844-6.671-22.922-5.952a5.757 5.757 0 0 1 .188-.634 8.072 8.072 0 0 1 4.994-4.775c-.762.965-1.708 2.4-1.207 3.115.792 1.139 8.453.136 15.739 4.515 1.774.948 2.44-.341 2.566-1.738a8.5 8.5 0 0 1 1.278 5.955z" class="cls-2" data-name="Path 1705" transform="translate(-34.602 -137.397)"/>
    <path id="Path_1706" d="M60.085 322.755a21.748 21.748 0 0 0-3.153 4.69 62.38 62.38 0 0 0-.71 1.32l-.314.6c-1.071 2.044-2.283 6.825-3.614 7.231s-8.234-1.653-9.025-3.368c-.511-1.1.141-4.114 1.237-7.786.116-.4.244-.8.373-1.211.151-.5.311-1 .481-1.513a304.91 304.91 0 0 1 1.307-3.918c1.442-4.237 4.663-9.2 6.606-11.982a43.064 43.064 0 0 0-.412 6.171 10.812 10.812 0 0 0 .519 3.564c.063.156.133.306.21.461 1.11 2.217 3.576 4.193 6.495 5.741z" class="cls-3" data-name="Path 1706" transform="translate(-43.092 -125.447)"/>
    <path id="Path_1707" d="M70.948 316.831c-.56 2.528-1.212 6.346-1.706 9.255-.1.532-.18 1.028-.258 1.485a67.72 67.72 0 0 1-.329 1.868c-.6 3.135-1.2 5.726-2.769 5.889s-9.626-.383-11.127-1.859c-.625-.615-.526-3.665-.19-7.011.057-.582.121-1.177.191-1.766.1-.9.216-1.8.334-2.651.254-1.863.509-3.5.677-4.513a26.836 26.836 0 0 0 8.887 1.979 8.837 8.837 0 0 0 5.237-1.834c.363-.26.711-.546 1.053-.842z" class="cls-3" data-name="Path 1707" transform="translate(-35.662 -118.806)"/>
    <path id="Path_1708" d="M76.575 329.344c-1.364.012-3.088-.92-4.628-3.241a4.445 4.445 0 0 1-.178-.268 4.937 4.937 0 0 0-.589-.747 23.046 23.046 0 0 0-5.661-3.91 21.287 21.287 0 0 0 1.412-1.946 19.278 19.278 0 0 0 2.087-4.226c.4-1.236 1.222-4.286 2.049-7.9a37.16 37.16 0 0 1 5.864 5.641 14.347 14.347 0 0 1 1.267 1.861c.1.17.185.343.268.512a5.821 5.821 0 0 1 .587 2c.352 4.762-1.076 12.213-2.478 12.224z" class="cls-3" data-name="Path 1708" transform="translate(-28.222 -125.256)"/>
    <path id="Path_1709" d="M76.575 326.149c-1.415.012-3.22-.988-4.806-3.509-1.143-1.813-4.47-3.725-6.25-4.657a21.282 21.282 0 0 0 1.412-1.946 13.613 13.613 0 0 1 3.973 2.653c1.47 1.452 3.887 3.717 4.979 3.394s1.39-2.358 1.992-5.18a36.8 36.8 0 0 0 .59-4.982 5.821 5.821 0 0 1 .587 2c.353 4.765-1.075 12.216-2.477 12.227z" class="cls-2" data-name="Path 1709" transform="translate(-28.222 -122.061)"/>
    <path id="Path_1710" d="M70.948 316.831c-.838 3.757-1.866 10.364-2.3 12.609-.6 3.135-1.2 5.726-2.769 5.889s-9.626-.383-11.127-1.859c-.9-.881-.3-6.822.336-11.428.253 2.5.778 6.11 1.778 6.765 1.562 1.033 8.142 1.759 9.542.758s3.017-9.034 3.481-11.892c.369-.26.716-.546 1.059-.842z" class="cls-2" data-name="Path 1710" transform="translate(-35.661 -118.806)"/>
    <path id="Path_1711" d="M60.085 318.69c-1.558 1.515-3.333 5.017-4.178 6.607-1.071 2.044-2.283 6.825-3.614 7.231s-8.234-1.653-9.025-3.368c-.511-1.1.141-4.114 1.237-7.786-.3 2.807-.437 6 .392 6.471 1.522.87 5.388 2.039 6.381 1.668s2.167-2.942 3.289-5.613a47.018 47.018 0 0 0 1.823-5.242s-2.574-3.11-2.8-5.712c1.11 2.22 3.576 4.196 6.495 5.744z" class="cls-2" data-name="Path 1711" transform="translate(-43.092 -121.382)"/>
    <g id="Group_409" data-name="Group 409" transform="translate(1.787 187.488)">
        <path id="Path_1712" d="M53.329 321.362l2.89-.256a62.38 62.38 0 0 0-.71 1.32l-2.37.208-7.853-3.09-1.121-1.655c.151-.5.311-1 .481-1.513l1.458 2.147z" class="cls-4" data-name="Path 1712" transform="translate(-44.166 -306.596)"/>
        <path id="Path_1713" d="M66.921 323.953l2.215-1c-.1.532-.18 1.028-.258 1.485l-1.759.8-12.39-1.578-.271-.336c.057-.582.121-1.177.191-1.766l.733.92z" class="cls-4" data-name="Path 1713" transform="translate(-37.342 -303.16)"/>
        <path id="Path_1714" d="M75.941 312.356l.022 2.568c0 .231 0 .338-4.728 8.041l-.093.151-1.452.738a4.445 4.445 0 0 1-.178-.268 4.936 4.936 0 0 0-.589-.747l1.34-.682c1.593-2.6 4.046-6.626 4.447-7.369l-.037-4.294a14.349 14.349 0 0 1 1.268 1.862z" class="cls-4" data-name="Path 1714" transform="translate(-27.751 -310.495)"/>
    </g>
    <path id="Path_1715" d="M123.247 331.865h-23a8.036 8.036 0 0 1-8.036-8.036 8.038 8.038 0 0 1 8.036-8.037h23a8.038 8.038 0 0 1 8.037 8.037 8.036 8.036 0 0 1-8.037 8.036z" class="cls-1" data-name="Path 1715" transform="translate(-10.524 -119.495)"/>
    <path id="Path_1716" d="M127.412 331.509H99.446a9.772 9.772 0 0 1-9.772-9.772 9.773 9.773 0 0 1 9.772-9.772h27.966a9.772 9.772 0 0 1 9.772 9.772 9.772 9.772 0 0 1-9.772 9.772z" class="cls-5" data-name="Path 1716" transform="translate(-12.206 -122.032)"/>
    <path id="Path_1717" d="M90.47 269.142l2.736 29.358c-10.8 1.006-20.046-3.411-20.647-9.865L72 282.651c-.6-6.451 7.668-12.503 18.47-13.509z" class="cls-6" data-name="Path 1717" transform="translate(-23.945 -150.425)"/>
    <path id="Path_1718" d="M126.262 269.142l-2.736 29.358c10.8 1.006 20.046-3.411 20.647-9.865l.559-5.989c.6-6.446-7.669-12.498-18.47-13.504z" class="cls-6" data-name="Path 1718" transform="translate(10.239 -150.425)"/>
    <path id="Path_1719" d="M134.361 263H110.99C91.569 263 76 279.348 76 298.768v16.577a46.874 46.874 0 0 0 14.239 33.778 46.526 46.526 0 0 0 61.339 2.92 46.857 46.857 0 0 0 17.552-36.7v-16.575c0-19.42-15.35-35.768-34.769-35.768z" class="cls-3" data-name="Path 1719" transform="translate(-21.273 -154.497)"/>
    <path id="Path_1720" d="M190.02 282.385H87.281c-19.825 0-35.9-16.422-35.9-36.683 0-20.257 16.073-36.681 35.9-36.681H190.02c19.827 0 35.9 16.424 35.9 36.681-.002 20.26-16.073 36.683-35.9 36.683z" class="cls-3" data-name="Path 1720" transform="translate(-37.594 -190.288)"/>
    <path id="Path_1721" d="M184 272.264H85.832c-15.917 0-28.819-13.183-28.819-29.447 0-16.263 12.9-29.446 28.819-29.446H184c15.917 0 28.819 13.183 28.819 29.446.003 16.264-12.898 29.447-28.819 29.447z" class="cls-7" data-name="Path 1721" transform="translate(-33.862 -187.403)"/>
    <path id="Path_1722" d="M184.668 274.59H86.495c-16.808 0-30.482-13.954-30.482-31.109s13.673-31.11 30.482-31.11h98.174c16.8 0 30.48 13.956 30.48 31.11s-13.676 31.109-30.481 31.109zM86.495 215.7c-14.974 0-27.156 12.464-27.156 27.784s12.182 27.783 27.156 27.783h98.174c14.972 0 27.154-12.463 27.154-27.783S199.641 215.7 184.668 215.7z" class="cls-4" data-name="Path 1722" transform="translate(-34.525 -188.066)"/>
    <path id="Rectangle_201" d="M0 0h93.697v2.844H0z" class="cls-1" data-name="Rectangle 201" transform="translate(54.514 155.936)"/>
    <path id="Rectangle_202" d="M0 0h93.697v2.844H0z" class="cls-1" data-name="Rectangle 202" transform="translate(54.514 161.877)"/>
    <path id="Path_1723" d="M124.964 229.039l-11.49-27.186L83.5 198.2l-18.429 23.767 29.964 3.577z" class="cls-8" data-name="Path 1723" transform="translate(-28.519 -197.465)"/>
    <path id="Path_1724" d="M107.126 232.407l8.848-28.157 29.486-6.494 20.613 21.908-29.487 6.414z" class="cls-8" data-name="Path 1724" transform="translate(-.635 -197.756)"/>
    <circle id="Ellipse_216" cx="30.569" cy="30.569" r="30.569" class="cls-9" data-name="Ellipse 216" transform="translate(71.293 130.633)"/>
    <ellipse id="Ellipse_217" cx="16.491" cy="5.083" class="cls-1" data-name="Ellipse 217" rx="16.491" ry="5.083" transform="translate(85.089 108.852)"/>
    <path id="Path_1725" d="M104.282 280.677h9.609c1.114 0 2.117-1.454 2.538-3.679l4.35-22.99c.752-3.97-.644-8.292-2.629-8.147l-2.416.175h-13.293l-2.418-.175c-1.986-.145-3.381 4.178-2.629 8.147l4.35 22.99c.421 2.225 1.423 3.679 2.538 3.679z" class="cls-3" data-name="Path 1725" transform="translate(-7.225 -165.863)"/>
    <path id="Path_1726" d="M99 262.376h20.708l2-10.181c.793-3.97-.68-8.362-2.777-8.217l-2.553.1h-14.045l-2.553-.2c-2.1-.143-3.571 4.36-2.777 8.33z" class="cls-2" data-name="Path 1726" transform="translate(-7.491 -167.178)"/>
    <path id="Path_1727" d="M129.564 239.3h-28.6l-14.3 23.132 14.3-.317h28.6l14.3.317z" class="cls-3" data-name="Path 1727" transform="translate(-14.206 -170.211)"/>
    <path id="Rectangle_203" d="M0 0h2.794v9.421H0z" class="cls-2" data-name="Rectangle 203" transform="translate(104.624 74.915)"/>
    <path id="Rectangle_204" d="M0 0h2.794v9.421H0z" class="cls-2" data-name="Rectangle 204" transform="translate(109.35 74.915)"/>
    <path id="Rectangle_205" d="M0 0h2.794v9.421H0z" class="cls-2" data-name="Rectangle 205" transform="translate(90.724 74.915)"/>
    <path id="Rectangle_206" d="M0 0h2.794v9.421H0z" class="cls-2" data-name="Rectangle 206" transform="translate(99.962 74.915)"/>
    <path id="Rectangle_207" d="M0 0h2.794v9.421H0z" class="cls-2" data-name="Rectangle 207" transform="translate(95.281 74.915)"/>
    <path id="Rectangle_208" d="M0 0h2.794v2.887H0z" class="cls-1" data-name="Rectangle 208" transform="translate(109.395 74.881)"/>
    <circle id="Ellipse_218" cx="24.287" cy="24.287" r="24.287" class="cls-4" data-name="Ellipse 218" transform="translate(77.575 136.916)"/>
    <g id="Group_410" data-name="Group 410" transform="translate(87.316 148.198)">
        <path id="Path_1728" d="M111.272 307.859l7.838-4.525 7.838-4.552-7.838-4.525-7.838 4.525-7.838-4.525-7.834 4.524 7.838 4.552z" class="cls-9" data-name="Path 1728" transform="translate(-95.596 -281.972)"/>
        <path id="Path_1729" d="M111.272 300.472l7.838-4.525 7.838-4.552-7.838-4.525-7.838 4.525-7.838-4.525-7.834 4.525 7.838 4.552z" class="cls-9" data-name="Path 1729" transform="translate(-95.596 -286.869)"/>
    </g>
    <circle id="Ellipse_219" cx="19.496" cy="19.496" r="19.496" class="cls-3" data-name="Ellipse 219" transform="translate(42.233 35.097)"/>
    <circle id="Ellipse_220" cx="11.744" cy="11.744" r="11.744" class="cls-4" data-name="Ellipse 220" transform="translate(49.986 42.849)"/>
    <g id="Group_411" data-name="Group 411" transform="translate(53.82 46.197)">
        <circle id="Ellipse_221" cx="7.91" cy="7.91" r="7.91" class="cls-10" data-name="Ellipse 221" transform="translate(0 .487)"/>
        <circle id="Ellipse_222" cx="4.272" cy="4.272" r="4.272" class="cls-9" data-name="Ellipse 222" transform="translate(6.8)"/>
        <circle id="Ellipse_223" cx="2.181" cy="2.181" r="2.181" class="cls-9" data-name="Ellipse 223" transform="translate(2.707 9.512)"/>
    </g>
    <circle id="Ellipse_224" cx="19.496" cy="19.496" r="19.496" class="cls-3" data-name="Ellipse 224" transform="translate(120.396 35.097)"/>
    <circle id="Ellipse_225" cx="11.62" cy="11.62" r="11.62" class="cls-4" data-name="Ellipse 225" transform="translate(128.272 42.973)"/>
    <g id="Group_412" data-name="Group 412" transform="translate(132.066 46.285)">
        <circle id="Ellipse_226" cx="7.826" cy="7.826" r="7.826" class="cls-10" data-name="Ellipse 226" transform="translate(0 .482)"/>
        <circle id="Ellipse_227" cx="4.227" cy="4.227" r="4.227" class="cls-9" data-name="Ellipse 227" transform="translate(6.728)"/>
        <circle id="Ellipse_228" cx="2.158" cy="2.158" r="2.158" class="cls-9" data-name="Ellipse 228" transform="translate(2.679 9.411)"/>
    </g>
    <path id="Rectangle_209" d="M0 0h54.139v9.783H0z" class="cls-11" data-name="Rectangle 209" transform="rotate(-57.228 210.74 11.425)"/>
    <path id="Rectangle_210" d="M0 0h58.571v4.562H0z" class="cls-11" data-name="Rectangle 210" transform="rotate(-57.228 223.672 7.623)"/>
    <path id="Path_1730" d="M117.987 342.559a34.225 34.225 0 1 1 34.227-34.225 34.264 34.264 0 0 1-34.227 34.225zm0-61.136a26.911 26.911 0 1 0 26.913 26.911 26.942 26.942 0 0 0-26.913-26.911z" class="cls-1" data-name="Path 1730" transform="translate(-16.126 -147.132)"/>
    <path id="Rectangle_211" d="M0 0h2.794v3.741H0z" class="cls-1" data-name="Rectangle 211" transform="translate(104.624 77.768)"/>
    <path id="Rectangle_212" d="M0 0h2.794v3.741H0z" class="cls-1" data-name="Rectangle 212" transform="translate(95.214 77.768)"/>
    <path id="Rectangle_213" d="M0 0h2.794v2.837H0z" class="cls-1" data-name="Rectangle 213" transform="translate(99.892 81.509)"/>
    <path id="Rectangle_214" d="M0 0h2.794v2.887H0z" class="cls-1" data-name="Rectangle 214" transform="translate(90.699 74.881)"/>
</svg>
