<?xml version="1.0" encoding="utf-8"?>
<!-- Generator: Adobe Illustrator 18.1.0, SVG Export Plug-In . SVG Version: 6.00 Build 0)  -->
<svg version="1.1" id="Layer_1" xmlns="http://www.w3.org/2000/svg" xmlns:xlink="http://www.w3.org/1999/xlink" x="0px" y="0px"
	 viewBox="0 0 1000 800" enable-background="new 0 0 1000 800" xml:space="preserve">
<linearGradient id="SVGID_1_" gradientUnits="userSpaceOnUse" x1="84.1638" y1="90.3536" x2="84.1638" y2="132.8832" gradientTransform="matrix(1.6714 0 0 1.6714 -0.6714 241.383)">
	<stop  offset="0" style="stop-color:#8EBDFD"/>
	<stop  offset="0.9921" style="stop-color:#838CF7"/>
</linearGradient>
<circle fill="url(#SVGID_1_)" cx="140" cy="428" r="35.6"/>
<linearGradient id="SVGID_2_" gradientUnits="userSpaceOnUse" x1="917.4824" y1="59.1537" x2="917.4824" y2="71.3313">
	<stop  offset="0" style="stop-color:#FBDB58"/>
	<stop  offset="0.9982" style="stop-color:#FCBE5E"/>
</linearGradient>
<circle fill="url(#SVGID_2_)" cx="917.5" cy="65.2" r="6.1"/>
<linearGradient id="SVGID_3_" gradientUnits="userSpaceOnUse" x1="847.4611" y1="184.8509" x2="847.4611" y2="212.2506">
	<stop  offset="0" style="stop-color:#FBDB58"/>
	<stop  offset="0.9982" style="stop-color:#FCBE5E"/>
</linearGradient>
<circle fill="url(#SVGID_3_)" cx="847.5" cy="198.6" r="13.7"/>
<linearGradient id="SVGID_4_" gradientUnits="userSpaceOnUse" x1="570.4203" y1="504.9307" x2="570.4203" y2="553.209">
	<stop  offset="0" style="stop-color:#FBDB58"/>
	<stop  offset="0.9982" style="stop-color:#FCBE5E"/>
</linearGradient>
<circle fill="url(#SVGID_4_)" cx="570.4" cy="529.1" r="24.1"/>
<linearGradient id="SVGID_5_" gradientUnits="userSpaceOnUse" x1="167.0366" y1="260.9611" x2="167.0366" y2="538.0019">
	<stop  offset="0" style="stop-color:#FBDB58"/>
	<stop  offset="0.9982" style="stop-color:#FCBE5E"/>
</linearGradient>
<circle fill="url(#SVGID_5_)" cx="167" cy="399.5" r="138.5"/>
<linearGradient id="SVGID_6_" gradientUnits="userSpaceOnUse" x1="575.291" y1="160.3244" x2="575.291" y2="800.9624">
	<stop  offset="0" style="stop-color:#FBDB58"/>
	<stop  offset="0.9982" style="stop-color:#FCBE5E"/>
</linearGradient>
<path fill="url(#SVGID_6_)" d="M1000,160.5c1.7-0.8-72-5.7-194.1,186.1c-35.7,56.1-87.9,191.8-118.7,235.2
	c-88.6,124.7-140.4-28.6-358.1,29.7C187.9,649.2,150.6,801,150.6,801H1000V160.5z"/>
</svg>
